<?xml version="1.0" standalone="no"?>
<!DOCTYPE svg PUBLIC "-//W3C//DTD SVG 20010904//EN"
 "http://www.w3.org/TR/2001/REC-SVG-20010904/DTD/svg10.dtd">
<svg version="1.0" xmlns="http://www.w3.org/2000/svg"
 width="723.000000pt" height="723.000000pt" viewBox="0 0 723.000000 723.000000"
 preserveAspectRatio="xMidYMid meet">
<metadata>
Created by potrace 1.11, written by Peter Selinger 2001-2013
</metadata>
<g transform="translate(0.000000,723.000000) scale(0.100000,-0.100000)"
fill="#000000" stroke="none">
<path d="M2892 7186 c-7 -19 -21 -38 -31 -41 -56 -18 -54 -11 -608 -1505 -265
-711 -326 -876 -423 -1140 -229 -618 -483 -1300 -515 -1383 -50 -125 -44 -188
22 -233 27 -18 53 -19 519 -19 l490 0 37 25 c20 13 41 35 46 48 26 56 5 132
-45 162 -32 21 -51 22 -409 27 -338 6 -375 8 -370 22 4 9 15 39 25 66 38 102
305 819 413 1108 l111 297 752 0 752 0 127 -342 c70 -189 194 -522 276 -741
82 -219 149 -400 149 -402 0 -3 -183 -6 -407 -7 -376 -3 -411 -4 -446 -22 -43
-21 -69 -63 -69 -111 0 -51 23 -86 71 -112 l44 -23 516 0 c481 0 519 1 551 18
19 10 43 34 53 53 33 63 63 -28 -405 1229 -116 311 -386 1033 -601 1605 -214
572 -407 1090 -428 1150 -54 150 -78 196 -119 223 -19 13 -41 36 -48 52 -6 17
-13 30 -15 30 -2 0 -9 -16 -15 -34z m118 -811 c50 -137 116 -315 145 -395 49
-134 212 -574 341 -921 30 -81 54 -152 54 -158 0 -8 -180 -11 -645 -11 -355 0
-645 4 -645 8 0 5 65 182 144 393 79 211 189 508 245 659 56 151 137 368 179
482 42 114 80 204 83 200 4 -4 48 -119 99 -257z"/>
<path d="M2444 4111 c-18 -11 -39 -30 -48 -42 -33 -48 -22 -92 125 -486 397
-1066 812 -2172 1049 -2798 84 -220 168 -445 187 -500 49 -139 66 -169 108
-189 19 -9 35 -21 35 -26 0 -5 5 -21 11 -37 l11 -28 19 43 c10 23 24 42 32 42
39 0 68 63 252 555 270 723 435 1165 675 1810 117 314 293 786 392 1050 190
508 192 514 151 569 -41 57 -42 57 -540 54 -431 -3 -460 -4 -486 -22 -58 -40
-76 -129 -35 -181 41 -53 58 -55 428 -55 187 0 340 -2 340 -5 0 -3 -198 -533
-439 -1178 -241 -645 -517 -1380 -612 -1635 -95 -254 -176 -459 -180 -455 -4
5 -57 145 -119 313 -62 168 -125 339 -140 380 -16 41 -88 235 -160 430 -129
347 -414 1113 -671 1798 -71 189 -129 345 -129 348 0 2 170 4 379 4 311 0 385
3 414 15 102 43 105 180 4 226 -39 17 -72 19 -532 19 -465 0 -492 -1 -521 -19z"/>
<path d="M5466 3358 c-10 -39 -7 -45 36 -77 l42 -31 -57 6 c-55 6 -57 5 -67
-21 -20 -53 -18 -55 85 -55 76 0 107 -5 161 -25 36 -14 68 -25 69 -25 5 0 27
71 23 74 -1 1 -30 13 -63 25 -42 15 -83 42 -133 86 -40 36 -77 65 -81 65 -5 0
-11 -10 -15 -22z"/>
<path d="M5375 3051 c-29 -12 -39 -28 -63 -92 l-21 -57 133 -50 c173 -66 182
-68 189 -45 2 10 8 25 11 34 6 12 -6 21 -54 38 -33 12 -60 24 -60 27 0 3 31 2
69 -2 l68 -6 12 32 c6 18 11 37 11 41 0 5 -33 9 -74 9 -64 0 -74 3 -79 19 -10
40 -97 71 -142 52z m70 -87 c25 -25 4 -40 -34 -24 -31 12 -37 21 -24 33 12 12
41 7 58 -9z"/>
<path d="M5240 2767 c0 -3 -13 -41 -29 -85 l-30 -80 148 -56 c82 -31 152 -56
157 -56 9 0 64 136 64 157 0 12 -23 23 -46 23 -8 0 -21 -18 -30 -40 -16 -40
-34 -49 -63 -31 -12 8 -13 16 -4 44 10 32 9 36 -14 46 -33 15 -32 15 -48 -23
-12 -27 -19 -33 -36 -29 -29 8 -32 22 -15 70 13 37 13 42 -2 46 -9 3 -25 8
-34 12 -10 4 -18 5 -18 2z"/>
<path d="M5095 2368 c-7 -18 -12 -34 -11 -35 5 -5 292 -113 301 -113 6 0 22
32 37 71 l26 71 -31 13 c-32 14 -32 14 -47 -21 -18 -41 -23 -40 -156 12 -48
19 -91 34 -96 34 -5 0 -15 -15 -23 -32z"/>
<path d="M4983 2096 l-11 -34 147 -56 c81 -31 151 -56 157 -56 10 0 54 112 54
137 0 6 -13 16 -29 21 -28 10 -30 9 -41 -24 -6 -19 -17 -34 -23 -34 -7 0 -59
18 -117 40 -58 22 -110 40 -116 40 -6 0 -15 -15 -21 -34z"/>
<path d="M4894 1844 c-9 -20 -12 -40 -7 -44 4 -4 67 -46 138 -94 118 -78 131
-85 143 -69 19 27 14 52 -14 65 -19 9 -24 17 -20 32 3 12 6 24 6 28 0 3 17 4
39 1 36 -5 39 -3 50 27 6 19 9 35 7 37 -2 3 -64 13 -138 23 -73 11 -146 22
-161 25 -25 4 -30 0 -43 -31z m175 -63 c21 -13 -5 -24 -29 -11 -11 6 -20 13
-20 15 0 8 34 5 49 -4z"/>
<path d="M4814 1571 c-54 -23 -70 -100 -33 -151 46 -61 211 -109 262 -76 28
19 48 64 40 94 -3 12 1 22 11 25 34 13 13 33 -61 60 -43 15 -81 27 -84 27 -7
0 -39 -74 -39 -89 0 -4 12 -13 26 -20 22 -10 28 -9 38 4 14 20 48 9 44 -14 -9
-41 -183 10 -183 54 0 15 8 21 32 23 24 2 33 9 38 29 3 14 4 27 2 30 -10 9
-74 12 -93 4z"/>
<path d="M4586 1048 c-29 -70 -50 -137 -45 -142 3 -3 19 -9 36 -12 25 -5 31
-2 36 15 5 21 6 21 99 -13 51 -19 106 -39 121 -45 26 -10 29 -9 42 21 7 18 11
36 9 39 -2 4 -55 26 -118 49 -112 41 -115 42 -110 69 5 22 1 29 -21 39 -35 16
-34 16 -49 -20z"/>
<path d="M4497 760 c-19 -12 -42 -52 -62 -110 l-13 -38 149 -56 c82 -31 153
-56 158 -56 7 0 31 51 31 65 0 1 -21 10 -47 20 -72 26 -72 33 0 28 l64 -6 12
33 c6 18 11 37 11 41 0 5 -33 9 -74 9 -64 0 -74 3 -79 19 -10 41 -110 75 -150
51z m78 -86 c25 -25 4 -40 -34 -24 -31 12 -37 21 -24 33 12 12 41 7 58 -9z"/>
<path d="M4345 399 c-8 -15 -15 -32 -15 -37 0 -9 243 -176 273 -188 11 -4 17
3 22 27 7 32 -4 50 -39 62 -8 3 -7 11 1 30 11 22 17 25 46 20 32 -5 35 -3 46
28 6 18 9 34 7 36 -2 2 -66 13 -142 23 -77 11 -149 21 -162 24 -17 2 -27 -4
-37 -25z m175 -69 c10 -6 11 -13 5 -19 -7 -7 -19 -3 -35 9 -23 18 -23 20 -5
20 11 0 27 -5 35 -10z"/>
</g>
</svg>
